<?xml version="1.0" encoding="utf-8"?>
<!-- Generator: Adobe Illustrator 19.0.1, SVG Export Plug-In . SVG Version: 6.00 Build 0)  -->
<svg version="1.1" id="Layer_1" xmlns="http://www.w3.org/2000/svg" xmlns:xlink="http://www.w3.org/1999/xlink" x="0px" y="0px"
	 viewBox="0 0 612 792" style="enable-background:new 0 0 612 792;" xml:space="preserve">
<style type="text/css">
	.st0{fill:#673AB7;}
	.st1{font-family:'OpenSans';}
	.st2{font-size:30px;}
	.st3{fill:#191919;}
	.st4{font-size:22px;}
	.st5{font-size:12px;}
	.st6{font-size:10px;}
	.st7{font-size:14px;}
	.st8{letter-spacing:2;}
	.st9{fill:none;stroke:#673AB7;stroke-width:0.8;stroke-miterlimit:10;}
	.st10{fill:none;stroke:#673AB7;stroke-width:0.5;stroke-miterlimit:10;}
	.st11{fill:none;stroke:#673AB7;stroke-width:0.5;stroke-linejoin:round;stroke-miterlimit:10;}
	.st12{font-size:8px;}
</style>
<text transform="matrix(1 0 0 1 291.821 73.2598)" class="st0 st1 st2">Samuel C. Grayson</text>
<g>
	<text transform="matrix(1 0 0 1 291.8211 99.9319)" class="st3 st1 st4">Charleston, SC</text>
</g>
<g>
	<text transform="matrix(1 0 0 1 75.3326 60.8188)" class="st0 st1 st5">WEBSITE</text>
</g>
<text transform="matrix(1 0 0 1 77.1512 73.2597)" class="st1 st6">samgrayson.github.io</text>
<text transform="matrix(1 0 0 1 75.3328 96.0925)" class="st0 st1 st5">MOBILE</text>
<text transform="matrix(1 0 0 1 77.1511 109.3277)" class="st1 st6">(678) - 294 - 8443</text>
<text transform="matrix(1 0 0 1 75.3325 132.0298)" class="st0 st1 st5">EMAIL</text>
<text transform="matrix(1 0 0 1 77.1511 144.6198)" class="st1 st6">samuel.c.grayson17@gmail.com</text>
<text transform="matrix(1.0174 0 0 1 230.4245 183.8911)" class="st0 st1 st7 st8">EXPERIENCE</text>
<line class="st9" x1="212.2" y1="180" x2="75.3" y2="180"/>
<line class="st9" x1="355" y1="180" x2="548.8" y2="180"/>
<text transform="matrix(1 0 0 1 76.6759 217.5097)" class="st1 st7">The Iron Yard</text>
<text transform="matrix(1 0 0 1 76.6759 230.9753)" class="st0 st1 st5">Front-End Student</text>
<text transform="matrix(1 0 0 1 77.6269 242.2326)" class="st1 st6">Charleston, SC</text>
<text transform="matrix(1 0 0 1 77.1514 288.6858)" class="st1 st7">HeavyDuty Branding</text>
<text transform="matrix(1 0 0 1 77.1514 302.1514)" class="st0 st1 st5">Marketing Intern</text>
<text transform="matrix(1 0 0 1 78.1025 313.4087)" class="st1 st6">Atlanta, GA</text>
<text transform="matrix(1 0 0 1 76.2005 358.3009)" class="st1 st7">Air Serv</text>
<text transform="matrix(1 0 0 1 76.2005 371.7665)" class="st0 st1 st5">Wheelchair Assistant</text>
<text transform="matrix(1 0 0 1 77.1515 383.0237)" class="st1 st6">Atlanta, GA</text>
<text transform="matrix(1 0 0 1 74.857 428.7463)" class="st1 st7">Partners II Pizza</text>
<text transform="matrix(1 0 0 1 74.857 442.2119)" class="st0 st1 st5">Pizza Renaissance Man</text>
<text transform="matrix(1 0 0 1 75.8081 453.4692)" class="st1 st6">Peachtree City, GA</text>
<circle class="st10" cx="64.3" cy="70.3" r="7.2"/>
<circle class="st10" cx="64.3" cy="107.2" r="7.2"/>
<circle class="st10" cx="64.3" cy="142" r="7.2"/>
<path class="st10" d="M64.3,63.1c-0.9,0-8.9,7.3,0,14.5"/>
<path class="st10" d="M64.3,63.1c0.9-0.2,8.9,7.1,0,14.5"/>
<line class="st10" x1="64.3" y1="63.1" x2="64.3" y2="77.6"/>
<line class="st11" x1="58.2" y1="74.5" x2="70.2" y2="74.5"/>
<line class="st10" x1="57.1" y1="70.3" x2="71.5" y2="70.3"/>
<line class="st10" x1="58.2" y1="66.2" x2="70.1" y2="66.2"/>
<path class="st11" d="M61.6,103.6c-0.9-0.5-1.5,1.6-1.6,2.3c-0.1,1.6,1.2,2.7,1.7,3.2c1.1,1,3.3,2.3,5.2,1.6
	c0.9-0.3,2.5-1.6,1.7-2.1c-0.8-0.5-1.7-1-2.4-1.1c-0.4-0.1-0.1,1.1-0.3,1.6c-0.1,0.6-2-0.5-3-1.4c-0.2-0.1-1.3-1.2-1-1.2
	c0.6-0.1,0.7-0.1,1.1-0.3c0.4-0.2,0.7-0.6,0.5-0.8C63,104.7,62.4,104.1,61.6,103.6z"/>
<path class="st11" d="M67.3,145.2h-6c-0.7,0-1.2-0.5-1.2-1.2v-4.1c0-0.4,0.2-0.7,0.4-0.9c0.2-0.2,0.5-0.3,0.8-0.3h6
	c0.7,0,1.2,0.5,1.2,1.2v4.1C68.5,144.7,67.9,145.2,67.3,145.2z"/>
<polyline class="st11" points="60.5,139 64.3,142 68.1,139 "/>
<text transform="matrix(1 0 0 1 240.955 217.5098)"><tspan x="0" y="0" class="st1 st6">Completed an exstensive, comprehensive coding school teaching</tspan><tspan x="0" y="12" class="st1 st6">all aspects of font end engineering and web development. </tspan></text>
<text transform="matrix(1 0 0 1 240.9552 288.6858)"><tspan x="0" y="0" class="st1 st6">Organized and maintained perpective client lists.</tspan><tspan x="0" y="12" class="st1 st6">Marketing research on potential leads and trends in the field. </tspan><tspan x="0" y="24" class="st1 st6">Maintained various social media outlets.</tspan></text>
<text transform="matrix(1 0 0 1 240.9553 358.3008)"><tspan x="0" y="0" class="st1 st6">Assisted passengers to their destinations at Hartsfield airport </tspan><tspan x="0" y="12" class="st1 st6">in Atlanta. Attending to their needs, questions, and concerns.</tspan><tspan x="0" y="24" class="st1 st6">Learned amazing values from stories of love, work, and life.</tspan></text>
<text transform="matrix(1 0 0 1 240.9549 428.7468)"><tspan x="0" y="0" class="st1 st6">Learned the importance of hardwork at the early age of fifteen </tspan><tspan x="0" y="12" class="st1 st6">and throughout four years of highschool.</tspan><tspan x="0" y="24" class="st1 st6">Began as a dish boy and progressed to buss boy, cashier, </tspan><tspan x="0" y="36" class="st1 st6">server and cook.</tspan></text>
<circle cx="232.4" cy="215.5" r="2"/>
<circle cx="232.4" cy="285.1" r="2"/>
<circle cx="232.4" cy="297.3" r="2"/>
<circle cx="232.4" cy="309.4" r="2"/>
<circle cx="231.7" cy="354.5" r="2"/>
<circle cx="231.7" cy="378.9" r="2"/>
<circle cx="231.7" cy="425.4" r="2"/>
<circle cx="231.7" cy="449.5" r="2"/>
<text transform="matrix(1 0 0 1 78.1023 252.1982)" class="st1 st12">May 2015 - August 2015</text>
<text transform="matrix(1 0 0 1 78.1024 323.1395)" class="st1 st12">May 2013 - August 2013</text>
<text transform="matrix(1 0 0 1 76.6757 392.3454)" class="st1 st12">May 2011 - August 2012</text>
<text transform="matrix(1 0 0 1 76.2004 463.0509)" class="st1 st12">May 2006 - August 2010</text>
<text transform="matrix(1.0174 0 0 1 231.6667 500.0586)" class="st0 st1 st7 st8">EDUCATION</text>
<line class="st9" x1="213" y1="496.1" x2="76.1" y2="496.1"/>
<line class="st9" x1="355.7" y1="496.1" x2="549.6" y2="496.1"/>
<text transform="matrix(1 0 0 1 76.6759 532.3117)" class="st1 st7">Mercer University</text>
<text transform="matrix(1 0 0 1 76.0917 546.027)" class="st0 st1 st5">NCAA Student Athlete</text>
<text transform="matrix(1 0 0 1 240.9554 532.3113)" class="st1 st7">BA Marketing, 2014</text>
<text transform="matrix(1 0 0 1 78.1023 557.9384)" class="st1 st6">Macon, GA</text>
<text transform="matrix(1 0 0 1 240.9552 548.0146)" class="st1 st6">First captain on NCAA DI Lacrosse Team</text>
<text transform="matrix(1.0174 0 0 1 257.3699 593.8123)" class="st0 st1 st7 st8">SKILLS</text>
<line class="st9" x1="213" y1="589.9" x2="76.1" y2="589.9"/>
<line class="st9" x1="355.7" y1="589.9" x2="549.6" y2="589.9"/>
<text transform="matrix(1 0 0 1 78.1026 567.6668)" class="st1 st12">2010 - 2014</text>
<text transform="matrix(1 0 0 1 93.4631 624.6935)"><tspan x="0" y="0" class="st0 st1 st7">Programming</tspan><tspan x="0" y="50.4" class="st0 st1 st7">Development</tspan><tspan x="0" y="100.8" class="st0 st1 st7">Non-Tech</tspan></text>
<text transform="matrix(1 0 0 1 212.9653 624.6936)"><tspan x="0" y="0" class="st1 st5">Javascript, Jquery, Angular.js, Backbone.js, NODE.js,SASS,</tspan><tspan x="0" y="14.4" class="st1 st5">HTML5, CSS3</tspan></text>
<text transform="matrix(1 0 0 1 212.9653 675.0148)"><tspan x="0" y="0" class="st1 st5">Adobe Creative Suite, Bootstrap, NPM/Bower, Passport,</tspan><tspan x="0" y="14.4" class="st1 st5">O-Auth/OpenID, GIT/GitHub, Heroku, MongoDB</tspan></text>
<text transform="matrix(1 0 0 1 212.9655 726.309)"><tspan x="0" y="0" class="st1 st5">Leadership, Public Speaking, Organization, Team Work</tspan><tspan x="0" y="14.4" class="st1 st5">Problem Solving, The gift of gab</tspan></text>
<text transform="matrix(1 0 0 1 293.6638 119.5809)" class="st1 st5">Front End Developer</text>
</svg>
